<svg xmlns="http://www.w3.org/2000/svg" width="600" height="400"><path d="M264,209L335,150L254,131Z" fill="rgb(86,141,141)" stroke="rgb(86,141,141)" stroke-width="1.51"/><path d="M264,209L365,201L335,150Z" fill="rgb(84,149,149)" stroke="rgb(84,149,149)" stroke-width="1.51"/><path d="M254,131L186,145L264,209Z" fill="rgb(87,135,135)" stroke="rgb(87,135,135)" stroke-width="1.51"/><path d="M264,209L336,261L365,201Z" fill="rgb(82,155,155)" stroke="rgb(82,155,155)" stroke-width="1.51"/><path d="M365,201L401,207L335,150Z" fill="rgb(83,154,154)" stroke="rgb(83,154,154)" stroke-width="1.51"/><path d="M393,252L401,207L365,201Z" fill="rgb(80,162,162)" stroke="rgb(80,162,162)" stroke-width="1.51"/><path d="M186,145L164,185L264,209Z" fill="rgb(86,135,135)" stroke="rgb(86,135,135)" stroke-width="1.51"/><path d="M264,209L276,294L336,261Z" fill="rgb(81,157,157)" stroke="rgb(81,157,157)" stroke-width="1.51"/><path d="M164,185L195,251L264,209Z" fill="rgb(85,141,141)" stroke="rgb(85,141,141)" stroke-width="1.51"/><path d="M195,251L276,294L264,209Z" fill="rgb(83,152,152)" stroke="rgb(83,152,152)" stroke-width="1.51"/><path d="M332,327L393,252L336,261Z" fill="rgb(77,169,169)" stroke="rgb(77,169,169)" stroke-width="1.51"/><path d="M336,261L393,252L365,201Z" fill="rgb(80,163,163)" stroke="rgb(80,163,163)" stroke-width="1.51"/><path d="M339,33L242,33L254,131Z" fill="rgb(88,124,124)" stroke="rgb(88,124,124)" stroke-width="1.51"/><path d="M254,131L199,35L186,145Z" fill="rgb(88,123,123)" stroke="rgb(88,123,123)" stroke-width="1.51"/><path d="M186,145L129,115L164,185Z" fill="rgb(88,125,125)" stroke="rgb(88,125,125)" stroke-width="1.51"/><path d="M339,33L254,131L335,150Z" fill="rgb(87,134,134)" stroke="rgb(87,134,134)" stroke-width="1.51"/><path d="M401,44L339,33L335,150Z" fill="rgb(87,135,135)" stroke="rgb(87,135,135)" stroke-width="1.51"/><path d="M276,294L332,327L336,261Z" fill="rgb(78,167,167)" stroke="rgb(78,167,167)" stroke-width="1.51"/><path d="M192,342L276,324L276,294Z" fill="rgb(79,164,164)" stroke="rgb(79,164,164)" stroke-width="1.51"/><path d="M401,207L437,110L335,150Z" fill="rgb(83,152,152)" stroke="rgb(83,152,152)" stroke-width="1.51"/><path d="M472,193L437,110L401,207Z" fill="rgb(81,160,160)" stroke="rgb(81,160,160)" stroke-width="1.51"/><path d="M242,33L199,35L254,131Z" fill="rgb(88,119,119)" stroke="rgb(88,119,119)" stroke-width="1.51"/><path d="M437,110L401,44L335,150Z" fill="rgb(85,143,143)" stroke="rgb(85,143,143)" stroke-width="1.51"/><path d="M276,324L332,327L276,294Z" fill="rgb(77,168,168)" stroke="rgb(77,168,168)" stroke-width="1.51"/><path d="M199,35L129,115L186,145Z" fill="rgb(88,117,117)" stroke="rgb(88,117,117)" stroke-width="1.51"/><path d="M164,185L117,264L195,251Z" fill="rgb(86,139,139)" stroke="rgb(86,139,139)" stroke-width="1.51"/><path d="M460,273L472,193L401,207Z" fill="rgb(76,170,170)" stroke="rgb(76,170,170)" stroke-width="1.51"/><path d="M460,273L401,207L393,252Z" fill="rgb(76,170,170)" stroke="rgb(76,170,170)" stroke-width="1.51"/><path d="M339,33L261,-38L242,33Z" fill="rgb(88,115,115)" stroke="rgb(88,115,115)" stroke-width="1.51"/><path d="M242,33L261,-38L199,35Z" fill="rgb(88,110,110)" stroke="rgb(88,110,110)" stroke-width="1.51"/><path d="M401,44L386,-2L339,33Z" fill="rgb(87,128,128)" stroke="rgb(87,128,128)" stroke-width="1.51"/><path d="M500,-14L386,-2L401,44Z" fill="rgb(87,131,132)" stroke="rgb(87,131,132)" stroke-width="1.51"/><path d="M129,115L95,204L164,185Z" fill="rgb(88,124,124)" stroke="rgb(88,124,124)" stroke-width="1.51"/><path d="M195,251L192,342L276,294Z" fill="rgb(82,157,156)" stroke="rgb(82,157,156)" stroke-width="1.51"/><path d="M95,204L117,264L164,185Z" fill="rgb(87,132,132)" stroke="rgb(87,132,132)" stroke-width="1.51"/><path d="M117,264L192,342L195,251Z" fill="rgb(84,149,149)" stroke="rgb(84,149,149)" stroke-width="1.51"/><path d="M346,423L410,357L332,327Z" fill="rgb(67,186,186)" stroke="rgb(67,186,186)" stroke-width="1.51"/><path d="M410,357L460,273L393,252Z" fill="rgb(72,179,179)" stroke="rgb(72,179,179)" stroke-width="1.51"/><path d="M336,-52L261,-38L339,33Z" fill="rgb(88,117,117)" stroke="rgb(88,117,117)" stroke-width="1.51"/><path d="M199,35L115,29L129,115Z" fill="rgb(88,108,109)" stroke="rgb(88,108,109)" stroke-width="1.51"/><path d="M163,-29L115,29L199,35Z" fill="rgb(88,102,103)" stroke="rgb(88,102,103)" stroke-width="1.51"/><path d="M129,115L46,128L95,204Z" fill="rgb(88,117,117)" stroke="rgb(88,117,117)" stroke-width="1.51"/><path d="M437,110L490,48L401,44Z" fill="rgb(86,143,143)" stroke="rgb(86,143,143)" stroke-width="1.51"/><path d="M472,193L503,108L437,110Z" fill="rgb(81,158,158)" stroke="rgb(81,158,158)" stroke-width="1.51"/><path d="M557,123L503,108L472,193Z" fill="rgb(79,163,163)" stroke="rgb(79,163,163)" stroke-width="1.51"/><path d="M386,-2L336,-52L339,33Z" fill="rgb(88,122,121)" stroke="rgb(88,122,121)" stroke-width="1.51"/><path d="M343,-88L336,-52L386,-2Z" fill="rgb(88,122,122)" stroke="rgb(88,122,122)" stroke-width="1.51"/><path d="M332,327L410,357L393,252Z" fill="rgb(72,177,177)" stroke="rgb(72,177,177)" stroke-width="1.51"/><path d="M346,423L332,327L276,324Z" fill="rgb(72,179,179)" stroke="rgb(72,179,179)" stroke-width="1.51"/><path d="M193,-124L163,-29L261,-38Z" fill="rgb(88,105,106)" stroke="rgb(88,105,106)" stroke-width="1.51"/><path d="M261,-38L163,-29L199,35Z" fill="rgb(88,105,106)" stroke="rgb(88,105,106)" stroke-width="1.51"/><path d="M503,108L490,48L437,110Z" fill="rgb(84,150,150)" stroke="rgb(84,150,150)" stroke-width="1.51"/><path d="M62,334L103,322L117,264Z" fill="rgb(85,144,144)" stroke="rgb(85,144,144)" stroke-width="1.51"/><path d="M117,264L103,322L192,342Z" fill="rgb(84,149,149)" stroke="rgb(84,149,149)" stroke-width="1.51"/><path d="M61,23L46,128L129,115Z" fill="rgb(88,106,106)" stroke="rgb(88,106,106)" stroke-width="1.51"/><path d="M95,204L42,218L117,264Z" fill="rgb(87,130,130)" stroke="rgb(87,130,130)" stroke-width="1.51"/><path d="M46,128L42,218L95,204Z" fill="rgb(88,120,120)" stroke="rgb(88,120,120)" stroke-width="1.51"/><path d="M85,405L205,409L192,342Z" fill="rgb(79,165,165)" stroke="rgb(79,165,165)" stroke-width="1.51"/><path d="M192,342L205,409L276,324Z" fill="rgb(78,168,168)" stroke="rgb(78,168,168)" stroke-width="1.51"/><path d="M336,-52L262,-96L261,-38Z" fill="rgb(88,114,114)" stroke="rgb(88,114,114)" stroke-width="1.51"/><path d="M439,-116L343,-88L386,-2Z" fill="rgb(88,126,126)" stroke="rgb(88,126,126)" stroke-width="1.51"/><path d="M460,273L545,218L472,193Z" fill="rgb(73,176,176)" stroke="rgb(73,176,176)" stroke-width="1.51"/><path d="M503,108L565,64L490,48Z" fill="rgb(83,153,152)" stroke="rgb(83,153,152)" stroke-width="1.51"/><path d="M590,263L545,218L460,273Z" fill="rgb(68,185,185)" stroke="rgb(68,185,185)" stroke-width="1.51"/><path d="M410,357L485,368L460,273Z" fill="rgb(64,190,190)" stroke="rgb(64,190,190)" stroke-width="1.51"/><path d="M251,433L346,423L276,324Z" fill="rgb(70,182,182)" stroke="rgb(70,182,182)" stroke-width="1.51"/><path d="M343,-88L262,-96L336,-52Z" fill="rgb(88,117,117)" stroke="rgb(88,117,117)" stroke-width="1.51"/><path d="M115,29L61,23L129,115Z" fill="rgb(88,103,103)" stroke="rgb(88,103,103)" stroke-width="1.51"/><path d="M56,-8L61,23L115,29Z" fill="rgb(87,94,94)" stroke="rgb(87,94,94)" stroke-width="1.51"/><path d="M109,-50L115,29L163,-29Z" fill="rgb(87,97,97)" stroke="rgb(87,97,97)" stroke-width="1.51"/><path d="M205,409L251,433L276,324Z" fill="rgb(73,176,175)" stroke="rgb(73,176,175)" stroke-width="1.51"/><path d="M545,218L557,123L472,193Z" fill="rgb(75,172,172)" stroke="rgb(75,172,172)" stroke-width="1.51"/><path d="M346,423L418,410L410,357Z" fill="rgb(60,194,194)" stroke="rgb(60,194,194)" stroke-width="1.51"/><path d="M490,48L500,-14L401,44Z" fill="rgb(86,138,138)" stroke="rgb(86,138,138)" stroke-width="1.51"/><path d="M567,-1L500,-14L490,48Z" fill="rgb(86,142,141)" stroke="rgb(86,142,141)" stroke-width="1.51"/><path d="M193,-124L109,-50L163,-29Z" fill="rgb(87,100,100)" stroke="rgb(87,100,100)" stroke-width="1.51"/><path d="M418,410L485,368L410,357Z" fill="rgb(58,196,196)" stroke="rgb(58,196,196)" stroke-width="1.51"/><path d="M103,322L85,405L192,342Z" fill="rgb(82,156,156)" stroke="rgb(82,156,156)" stroke-width="1.51"/><path d="M14,265L62,334L117,264Z" fill="rgb(86,138,137)" stroke="rgb(86,138,137)" stroke-width="1.51"/><path d="M109,-50L56,-8L115,29Z" fill="rgb(87,93,94)" stroke="rgb(87,93,94)" stroke-width="1.51"/><path d="M-45,110L-23,208L46,128Z" fill="rgb(88,107,108)" stroke="rgb(88,107,108)" stroke-width="1.51"/><path d="M42,218L14,265L117,264Z" fill="rgb(87,130,130)" stroke="rgb(87,130,130)" stroke-width="1.51"/><path d="M-23,208L14,265L42,218Z" fill="rgb(88,122,122)" stroke="rgb(88,122,122)" stroke-width="1.51"/><path d="M-23,208L42,218L46,128Z" fill="rgb(88,116,115)" stroke="rgb(88,116,115)" stroke-width="1.51"/><path d="M615,132L565,64L557,123Z" fill="rgb(79,165,165)" stroke="rgb(79,165,165)" stroke-width="1.51"/><path d="M557,123L565,64L503,108Z" fill="rgb(81,160,159)" stroke="rgb(81,160,159)" stroke-width="1.51"/><path d="M262,-96L193,-124L261,-38Z" fill="rgb(88,109,109)" stroke="rgb(88,109,109)" stroke-width="1.51"/><path d="M109,-50L86,-100L56,-8Z" fill="rgb(86,92,92)" stroke="rgb(86,92,92)" stroke-width="1.51"/><path d="M439,-116L193,-124L262,-96Z" fill="rgb(88,115,116)" stroke="rgb(88,115,116)" stroke-width="1.51"/><path d="M62,334L85,405L103,322Z" fill="rgb(83,151,150)" stroke="rgb(83,151,150)" stroke-width="1.51"/><path d="M200,512L289,516L251,433Z" fill="rgb(72,178,178)" stroke="rgb(72,178,178)" stroke-width="1.51"/><path d="M62,428L85,405L62,334Z" fill="rgb(82,155,155)" stroke="rgb(82,155,155)" stroke-width="1.51"/><path d="M-40,355L62,428L62,334Z" fill="rgb(84,148,148)" stroke="rgb(84,148,148)" stroke-width="1.51"/><path d="M-30,57L46,128L61,23Z" fill="rgb(87,96,97)" stroke="rgb(87,96,97)" stroke-width="1.51"/><path d="M537,363L590,263L460,273Z" fill="rgb(61,193,193)" stroke="rgb(61,193,193)" stroke-width="1.51"/><path d="M545,218L615,132L557,123Z" fill="rgb(75,173,173)" stroke="rgb(75,173,173)" stroke-width="1.51"/><path d="M485,368L537,363L460,273Z" fill="rgb(59,195,195)" stroke="rgb(59,195,195)" stroke-width="1.51"/><path d="M473,446L537,363L485,368Z" fill="rgb(46,206,206)" stroke="rgb(46,206,206)" stroke-width="1.51"/><path d="M343,-88L439,-116L262,-96Z" fill="rgb(88,121,121)" stroke="rgb(88,121,121)" stroke-width="1.51"/><path d="M500,-14L439,-116L386,-2Z" fill="rgb(87,131,131)" stroke="rgb(87,131,131)" stroke-width="1.51"/><path d="M477,-119L439,-116L500,-14Z" fill="rgb(86,135,135)" stroke="rgb(86,135,135)" stroke-width="1.51"/><path d="M565,64L567,-1L490,48Z" fill="rgb(84,149,149)" stroke="rgb(84,149,149)" stroke-width="1.51"/><path d="M641,-3L567,-1L565,64Z" fill="rgb(83,152,151)" stroke="rgb(83,152,151)" stroke-width="1.51"/><path d="M635,195L615,132L545,218Z" fill="rgb(71,181,181)" stroke="rgb(71,181,181)" stroke-width="1.51"/><path d="M418,410L473,446L485,368Z" fill="rgb(51,203,203)" stroke="rgb(51,203,203)" stroke-width="1.51"/><path d="M346,423L419,478L418,410Z" fill="rgb(59,195,195)" stroke="rgb(59,195,195)" stroke-width="1.51"/><path d="M251,433L346,490L346,423Z" fill="rgb(67,186,185)" stroke="rgb(67,186,185)" stroke-width="1.51"/><path d="M289,516L346,490L251,433Z" fill="rgb(69,183,183)" stroke="rgb(69,183,183)" stroke-width="1.51"/><path d="M56,-8L-30,57L61,23Z" fill="rgb(86,90,90)" stroke="rgb(86,90,90)" stroke-width="1.51"/><path d="M193,-124L86,-100L109,-50Z" fill="rgb(87,97,97)" stroke="rgb(87,97,97)" stroke-width="1.51"/><path d="M419,478L473,446L418,410Z" fill="rgb(53,200,200)" stroke="rgb(53,200,200)" stroke-width="1.51"/><path d="M-49,-13L-30,57L56,-8Z" fill="rgb(86,85,86)" stroke="rgb(86,85,86)" stroke-width="1.51"/><path d="M346,490L419,478L346,423Z" fill="rgb(62,192,192)" stroke="rgb(62,192,192)" stroke-width="1.51"/><path d="M-30,57L-45,110L46,128Z" fill="rgb(87,99,99)" stroke="rgb(87,99,99)" stroke-width="1.51"/><path d="M439,-116L477,-119L193,-124Z" fill="rgb(88,123,123)" stroke="rgb(88,123,123)" stroke-width="1.51"/><path d="M572,-92L477,-119L500,-14Z" fill="rgb(86,140,140)" stroke="rgb(86,140,140)" stroke-width="1.51"/><path d="M118,514L200,512L205,409Z" fill="rgb(77,169,169)" stroke="rgb(77,169,169)" stroke-width="1.51"/><path d="M-40,301L62,334L14,265Z" fill="rgb(86,134,133)" stroke="rgb(86,134,133)" stroke-width="1.51"/><path d="M620,273L635,195L590,263Z" fill="rgb(62,192,192)" stroke="rgb(62,192,192)" stroke-width="1.51"/><path d="M590,263L635,195L545,218Z" fill="rgb(66,188,188)" stroke="rgb(66,188,188)" stroke-width="1.51"/><path d="M537,363L620,273L590,263Z" fill="rgb(54,200,200)" stroke="rgb(54,200,200)" stroke-width="1.51"/><path d="M658,377L620,273L537,363Z" fill="rgb(42,208,208)" stroke="rgb(42,208,208)" stroke-width="1.51"/><path d="M200,512L251,433L205,409Z" fill="rgb(74,175,174)" stroke="rgb(74,175,174)" stroke-width="1.51"/><path d="M346,490L479,519L419,478Z" fill="rgb(57,198,198)" stroke="rgb(57,198,198)" stroke-width="1.51"/><path d="M-23,208L-40,301L14,265Z" fill="rgb(88,125,125)" stroke="rgb(88,125,125)" stroke-width="1.51"/><path d="M-106,222L-40,301L-23,208Z" fill="rgb(88,123,123)" stroke="rgb(88,123,123)" stroke-width="1.51"/><path d="M118,514L205,409L85,405Z" fill="rgb(79,165,165)" stroke="rgb(79,165,165)" stroke-width="1.51"/><path d="M567,-1L572,-92L500,-14Z" fill="rgb(85,143,143)" stroke="rgb(85,143,143)" stroke-width="1.51"/><path d="M615,132L647,73L565,64Z" fill="rgb(79,165,164)" stroke="rgb(79,165,164)" stroke-width="1.51"/><path d="M722,133L647,73L615,132Z" fill="rgb(77,169,169)" stroke="rgb(77,169,169)" stroke-width="1.51"/><path d="M-103,371L-40,355L-40,301Z" fill="rgb(86,139,139)" stroke="rgb(86,139,139)" stroke-width="1.51"/><path d="M-40,301L-40,355L62,334Z" fill="rgb(86,137,137)" stroke="rgb(86,137,137)" stroke-width="1.51"/><path d="M-45,110L-106,222L-23,208Z" fill="rgb(88,112,112)" stroke="rgb(88,112,112)" stroke-width="1.51"/><path d="M-30,57L-114,58L-45,110Z" fill="rgb(87,95,96)" stroke="rgb(87,95,96)" stroke-width="1.51"/><path d="M-28,-98L-49,-13L56,-8Z" fill="rgb(85,83,84)" stroke="rgb(85,83,84)" stroke-width="1.51"/><path d="M641,-3L572,-92L567,-1Z" fill="rgb(84,148,148)" stroke="rgb(84,148,148)" stroke-width="1.51"/><path d="M541,498L570,428L473,446Z" fill="rgb(37,211,211)" stroke="rgb(37,211,211)" stroke-width="1.51"/><path d="M473,446L570,428L537,363Z" fill="rgb(37,211,211)" stroke="rgb(37,211,211)" stroke-width="1.51"/><path d="M50,492L118,514L62,428Z" fill="rgb(81,158,158)" stroke="rgb(81,158,158)" stroke-width="1.51"/><path d="M62,428L118,514L85,405Z" fill="rgb(81,159,159)" stroke="rgb(81,159,159)" stroke-width="1.51"/><path d="M200,512L118,514L289,516Z" fill="rgb(75,173,172)" stroke="rgb(75,173,172)" stroke-width="1.51"/><path d="M647,73L641,-3L565,64Z" fill="rgb(82,157,157)" stroke="rgb(82,157,157)" stroke-width="1.51"/><path d="M86,-100L19,-127L56,-8Z" fill="rgb(86,89,89)" stroke="rgb(86,89,89)" stroke-width="1.51"/><path d="M193,-124L19,-127L86,-100Z" fill="rgb(87,93,94)" stroke="rgb(87,93,94)" stroke-width="1.51"/><path d="M-134,142L-106,222L-45,110Z" fill="rgb(88,109,109)" stroke="rgb(88,109,109)" stroke-width="1.51"/><path d="M419,478L479,519L473,446Z" fill="rgb(51,203,203)" stroke="rgb(51,203,203)" stroke-width="1.51"/><path d="M289,516L479,519L346,490Z" fill="rgb(61,193,192)" stroke="rgb(61,193,192)" stroke-width="1.51"/><path d="M118,514L479,519L289,516Z" fill="rgb(69,183,183)" stroke="rgb(69,183,183)" stroke-width="1.51"/><path d="M-45,484L50,492L62,428Z" fill="rgb(83,152,152)" stroke="rgb(83,152,152)" stroke-width="1.51"/><path d="M19,-127L-28,-98L56,-8Z" fill="rgb(86,84,85)" stroke="rgb(86,84,85)" stroke-width="1.51"/><path d="M-106,222L-108,282L-40,301Z" fill="rgb(87,127,127)" stroke="rgb(87,127,127)" stroke-width="1.51"/><path d="M-40,355L-64,451L62,428Z" fill="rgb(84,149,149)" stroke="rgb(84,149,149)" stroke-width="1.51"/><path d="M-49,-13L-114,58L-30,57Z" fill="rgb(86,88,89)" stroke="rgb(86,88,89)" stroke-width="1.51"/><path d="M-106,222L-134,142L-108,282Z" fill="rgb(88,118,118)" stroke="rgb(88,118,118)" stroke-width="1.51"/><path d="M-124,-10L-114,58L-49,-13Z" fill="rgb(86,85,86)" stroke="rgb(86,85,86)" stroke-width="1.51"/><path d="M479,519L541,498L473,446Z" fill="rgb(44,207,207)" stroke="rgb(44,207,207)" stroke-width="1.51"/><path d="M-114,58L-134,142L-45,110Z" fill="rgb(87,100,100)" stroke="rgb(87,100,100)" stroke-width="1.51"/><path d="M570,428L658,377L537,363Z" fill="rgb(24,216,216)" stroke="rgb(24,216,216)" stroke-width="1.51"/><path d="M733,209L722,133L635,195Z" fill="rgb(71,180,180)" stroke="rgb(71,180,180)" stroke-width="1.51"/><path d="M635,195L722,133L615,132Z" fill="rgb(74,176,175)" stroke="rgb(74,176,175)" stroke-width="1.51"/><path d="M656,406L658,377L570,428Z" fill="rgb(9,220,220)" stroke="rgb(9,220,220)" stroke-width="1.51"/><path d="M710,297L635,195L620,273Z" fill="rgb(60,194,194)" stroke="rgb(60,194,194)" stroke-width="1.51"/><path d="M647,73L713,-7L641,-3Z" fill="rgb(83,153,153)" stroke="rgb(83,153,153)" stroke-width="1.51"/><path d="M658,377L710,297L620,273Z" fill="rgb(48,205,204)" stroke="rgb(48,205,204)" stroke-width="1.51"/><path d="M652,515L656,406L570,428Z" fill="rgb(9,220,220)" stroke="rgb(9,220,220)" stroke-width="1.51"/><path d="M713,-7L644,-95L641,-3Z" fill="rgb(84,149,149)" stroke="rgb(84,149,149)" stroke-width="1.51"/><path d="M641,-3L644,-95L572,-92Z" fill="rgb(84,149,149)" stroke="rgb(84,149,149)" stroke-width="1.51"/><path d="M572,-92L697,-121L477,-119Z" fill="rgb(84,147,147)" stroke="rgb(84,147,147)" stroke-width="1.51"/><path d="M713,331L710,297L658,377Z" fill="rgb(43,208,208)" stroke="rgb(43,208,208)" stroke-width="1.51"/><path d="M-106,418L-103,371L-123,495Z" fill="rgb(84,149,149)" stroke="rgb(84,149,149)" stroke-width="1.51"/><path d="M-108,282L-103,371L-40,301Z" fill="rgb(86,135,135)" stroke="rgb(86,135,135)" stroke-width="1.51"/><path d="M710,297L733,209L635,195Z" fill="rgb(64,190,190)" stroke="rgb(64,190,190)" stroke-width="1.51"/><path d="M-120,-96L-124,-10L-49,-13Z" fill="rgb(85,83,84)" stroke="rgb(85,83,84)" stroke-width="1.51"/><path d="M-114,58L-124,-10L-134,142Z" fill="rgb(87,93,94)" stroke="rgb(87,93,94)" stroke-width="1.51"/><path d="M-106,418L-64,451L-40,355Z" fill="rgb(84,149,149)" stroke="rgb(84,149,149)" stroke-width="1.51"/><path d="M710,297L713,331L733,209Z" fill="rgb(56,198,198)" stroke="rgb(56,198,198)" stroke-width="1.51"/><path d="M691,418L713,331L658,377Z" fill="rgb(28,215,215)" stroke="rgb(28,215,215)" stroke-width="1.51"/><path d="M733,209L736,77L722,133Z" fill="rgb(75,174,173)" stroke="rgb(75,174,173)" stroke-width="1.51"/><path d="M722,133L736,77L647,73Z" fill="rgb(78,166,165)" stroke="rgb(78,166,165)" stroke-width="1.51"/><path d="M736,77L713,-7L647,73Z" fill="rgb(81,157,157)" stroke="rgb(81,157,157)" stroke-width="1.51"/><path d="M-64,451L-45,484L62,428Z" fill="rgb(84,149,149)" stroke="rgb(84,149,149)" stroke-width="1.51"/><path d="M50,492L-45,484L118,514Z" fill="rgb(82,154,154)" stroke="rgb(82,154,154)" stroke-width="1.51"/><path d="M-64,451L-123,495L-45,484Z" fill="rgb(84,149,149)" stroke="rgb(84,149,149)" stroke-width="1.51"/><path d="M-103,371L-106,418L-40,355Z" fill="rgb(85,146,146)" stroke="rgb(85,146,146)" stroke-width="1.51"/><path d="M-123,495L-103,371L-108,282Z" fill="rgb(85,146,146)" stroke="rgb(85,146,146)" stroke-width="1.51"/><path d="M656,406L691,418L658,377Z" fill="rgb(9,220,220)" stroke="rgb(9,220,220)" stroke-width="1.51"/><path d="M652,515L691,418L656,406Z" fill="rgb(9,220,220)" stroke="rgb(9,220,220)" stroke-width="1.51"/><path d="M-28,-98L-120,-96L-49,-13Z" fill="rgb(85,83,84)" stroke="rgb(85,83,84)" stroke-width="1.51"/><path d="M-124,-10L-120,-96L-134,142Z" fill="rgb(86,85,86)" stroke="rgb(86,85,86)" stroke-width="1.51"/><path d="M19,-127L-120,-96L-28,-98Z" fill="rgb(85,83,84)" stroke="rgb(85,83,84)" stroke-width="1.51"/><path d="M713,-7L697,-121L644,-95Z" fill="rgb(84,149,149)" stroke="rgb(84,149,149)" stroke-width="1.51"/><path d="M644,-95L697,-121L572,-92Z" fill="rgb(84,149,149)" stroke="rgb(84,149,149)" stroke-width="1.51"/><path d="M477,-119L697,-121L193,-124Z" fill="rgb(87,133,133)" stroke="rgb(87,133,133)" stroke-width="1.51"/><path d="M193,-124L697,-121L19,-127Z" fill="rgb(88,116,116)" stroke="rgb(88,116,116)" stroke-width="1.51"/><path d="M736,77L697,-121L713,-7Z" fill="rgb(84,149,149)" stroke="rgb(84,149,149)" stroke-width="1.51"/><path d="M479,519L652,515L541,498Z" fill="rgb(29,215,215)" stroke="rgb(29,215,215)" stroke-width="1.51"/><path d="M541,498L652,515L570,428Z" fill="rgb(17,218,218)" stroke="rgb(17,218,218)" stroke-width="1.51"/><path d="M-106,418L-123,495L-64,451Z" fill="rgb(84,149,149)" stroke="rgb(84,149,149)" stroke-width="1.51"/><path d="M-45,484L-123,495L118,514Z" fill="rgb(84,149,149)" stroke="rgb(84,149,149)" stroke-width="1.51"/><path d="M-134,142L-123,495L-108,282Z" fill="rgb(87,133,133)" stroke="rgb(87,133,133)" stroke-width="1.51"/><path d="M652,515L711,499L691,418Z" fill="rgb(9,220,220)" stroke="rgb(9,220,220)" stroke-width="1.51"/><path d="M691,418L711,499L713,331Z" fill="rgb(9,220,220)" stroke="rgb(9,220,220)" stroke-width="1.51"/><path d="M713,331L711,499L733,209Z" fill="rgb(39,210,210)" stroke="rgb(39,210,210)" stroke-width="1.51"/></svg>